# xmcd
#
# Track frame offsets:
#	150
#	13452
#	27905
#	37504
#	48574
#	63367
#	78717
#	93006
#	104210
#	118328
#	131319
#	141864
#
# Disc length: 2100 seconds
#
# Revision: 1
# Processed by: cddbd v1.5.1PL2 Copyright (c) Steve Scherf et al.
# Submitted via: audiograbber 1.83.01
#
DISCID=a308320c
DTITLE=Royal Wade Kimes - A Dyin' Breed
DYEAR=1900
DGENRE=Country
TTITLE0=Mile High Honey
TTITLE1=A Dyin' Breed
TTITLE2=Puttin' On
TTITLE3=Ball and Chain
TTITLE4=Senorita
TTITLE5=There Ain't Enough Miles
TTITLE6=Night Birds
TTITLE7=Boogie Man
TTITLE8=Gunslinger
TTITLE9=Good Guys
TTITLE10=Where Have All The Cowboys Gone
TTITLE11=In My Land
EXTD=
EXTT0=
EXTT1=
EXTT2=
EXTT3=
EXTT4=
EXTT5=
EXTT6=Duet with Garth Brooks
EXTT7=
EXTT8=
EXTT9=
EXTT10=
EXTT11=
PLAYORDER=
